<svg width="95" height="19" viewBox="0 0 95 19" fill="none" xmlns="http://www.w3.org/2000/svg">
<path d="M8.90625 12.6465V14.5898H1.76758V12.6465H8.90625ZM2.45117 0.371094V14.5898H0V0.371094H2.45117ZM14.8246 14.7852C14.0434 14.7852 13.337 14.6582 12.7055 14.4043C12.0805 14.1439 11.5466 13.7826 11.1039 13.3203C10.6677 12.8581 10.3324 12.3145 10.098 11.6895C9.86367 11.0645 9.74648 10.3906 9.74648 9.66797V9.27734C9.74648 8.45052 9.86693 7.70182 10.1078 7.03125C10.3487 6.36068 10.684 5.78776 11.1137 5.3125C11.5434 4.83073 12.0512 4.46289 12.6371 4.20898C13.223 3.95508 13.8578 3.82812 14.5414 3.82812C15.2966 3.82812 15.9574 3.95508 16.5238 4.20898C17.0902 4.46289 17.559 4.82096 17.9301 5.2832C18.3077 5.73893 18.5876 6.28255 18.7699 6.91406C18.9587 7.54557 19.0531 8.24219 19.0531 9.00391V10.0098H10.8891V8.32031H16.7289V8.13477C16.7159 7.71159 16.6313 7.31445 16.475 6.94336C16.3253 6.57227 16.0941 6.27279 15.7816 6.04492C15.4691 5.81706 15.0525 5.70312 14.5316 5.70312C14.141 5.70312 13.7927 5.78776 13.4867 5.95703C13.1872 6.11979 12.9366 6.35742 12.7348 6.66992C12.5329 6.98242 12.3767 7.36003 12.266 7.80273C12.1618 8.23893 12.1098 8.73047 12.1098 9.27734V9.66797C12.1098 10.1302 12.1716 10.5599 12.2953 10.957C12.4255 11.3477 12.6143 11.6895 12.8617 11.9824C13.1091 12.2754 13.4086 12.5065 13.7602 12.6758C14.1117 12.8385 14.5121 12.9199 14.9613 12.9199C15.5277 12.9199 16.0323 12.806 16.475 12.5781C16.9177 12.3503 17.3018 12.028 17.6273 11.6113L18.8676 12.8125C18.6397 13.1445 18.3435 13.4635 17.9789 13.7695C17.6143 14.069 17.1684 14.3132 16.641 14.502C16.1202 14.6908 15.5147 14.7852 14.8246 14.7852ZM26.4461 12.4707V7.43164C26.4461 7.05404 26.3777 6.72852 26.241 6.45508C26.1043 6.18164 25.896 5.97005 25.616 5.82031C25.3426 5.67057 24.9975 5.5957 24.5809 5.5957C24.1967 5.5957 23.8647 5.66081 23.5848 5.79102C23.3048 5.92122 23.0867 6.09701 22.9305 6.31836C22.7742 6.53971 22.6961 6.79036 22.6961 7.07031H20.3523C20.3523 6.65365 20.4533 6.25 20.6551 5.85938C20.8569 5.46875 21.1499 5.12044 21.534 4.81445C21.9181 4.50846 22.3771 4.26758 22.9109 4.0918C23.4448 3.91602 24.0438 3.82812 24.7078 3.82812C25.5021 3.82812 26.2052 3.96159 26.8172 4.22852C27.4357 4.49544 27.9207 4.89909 28.2723 5.43945C28.6303 5.97331 28.8094 6.64388 28.8094 7.45117V12.1484C28.8094 12.6302 28.8419 13.0632 28.907 13.4473C28.9786 13.8249 29.0796 14.1536 29.2098 14.4336V14.5898H26.7977C26.687 14.3359 26.5991 14.0137 26.534 13.623C26.4754 13.2259 26.4461 12.8418 26.4461 12.4707ZM26.7879 8.16406L26.8074 9.61914H25.118C24.6818 9.61914 24.2977 9.66146 23.9656 9.74609C23.6336 9.82422 23.3569 9.94141 23.1355 10.0977C22.9142 10.2539 22.7482 10.4427 22.6375 10.6641C22.5268 10.8854 22.4715 11.1361 22.4715 11.416C22.4715 11.696 22.5366 11.9531 22.6668 12.1875C22.797 12.4154 22.9858 12.5944 23.2332 12.7246C23.4871 12.8548 23.7931 12.9199 24.1512 12.9199C24.6329 12.9199 25.0529 12.8223 25.4109 12.627C25.7755 12.4251 26.062 12.181 26.2703 11.8945C26.4786 11.6016 26.5893 11.3249 26.6023 11.0645L27.3641 12.1094C27.2859 12.3763 27.1525 12.6628 26.9637 12.9688C26.7749 13.2747 26.5275 13.5677 26.2215 13.8477C25.922 14.1211 25.5607 14.3457 25.1375 14.5215C24.7208 14.6973 24.2391 14.7852 23.6922 14.7852C23.0021 14.7852 22.3868 14.6484 21.8465 14.375C21.3061 14.0951 20.8829 13.7207 20.577 13.252C20.271 12.7767 20.118 12.2396 20.118 11.6406C20.118 11.0807 20.2221 10.5859 20.4305 10.1562C20.6453 9.72005 20.9578 9.35547 21.368 9.0625C21.7846 8.76953 22.2924 8.54818 22.8914 8.39844C23.4904 8.24219 24.174 8.16406 24.9422 8.16406H26.7879ZM33.2336 6.03516V14.5898H30.8801V4.02344H33.1262L33.2336 6.03516ZM36.466 3.95508L36.4465 6.14258C36.3033 6.11654 36.147 6.09701 35.9777 6.08398C35.815 6.07096 35.6522 6.06445 35.4895 6.06445C35.0858 6.06445 34.731 6.12305 34.425 6.24023C34.119 6.35091 33.8618 6.51367 33.6535 6.72852C33.4517 6.93685 33.2954 7.19076 33.1848 7.49023C33.0741 7.78971 33.009 8.125 32.9895 8.49609L32.4523 8.53516C32.4523 7.87109 32.5174 7.25586 32.6477 6.68945C32.7779 6.12305 32.9732 5.625 33.2336 5.19531C33.5005 4.76562 33.8326 4.43034 34.2297 4.18945C34.6333 3.94857 35.0988 3.82812 35.6262 3.82812C35.7694 3.82812 35.9224 3.84115 36.0852 3.86719C36.2544 3.89323 36.3814 3.92253 36.466 3.95508ZM39.8746 6.2793V14.5898H37.5211V4.02344H39.7379L39.8746 6.2793ZM39.4547 8.91602L38.693 8.90625C38.6995 8.15755 38.8036 7.4707 39.0055 6.8457C39.2138 6.2207 39.5003 5.68359 39.8648 5.23438C40.2359 4.78516 40.6786 4.4401 41.193 4.19922C41.7073 3.95182 42.2802 3.82812 42.9117 3.82812C43.4195 3.82812 43.8785 3.89974 44.2887 4.04297C44.7053 4.17969 45.0602 4.4043 45.3531 4.7168C45.6526 5.0293 45.8805 5.4362 46.0367 5.9375C46.193 6.43229 46.2711 7.04102 46.2711 7.76367V14.5898H43.9078V7.75391C43.9078 7.24609 43.8329 6.8457 43.6832 6.55273C43.54 6.25326 43.3284 6.04167 43.0484 5.91797C42.775 5.78776 42.4332 5.72266 42.023 5.72266C41.6194 5.72266 41.2581 5.80729 40.9391 5.97656C40.6201 6.14583 40.3499 6.37695 40.1285 6.66992C39.9137 6.96289 39.7477 7.30143 39.6305 7.68555C39.5133 8.06966 39.4547 8.47982 39.4547 8.91602ZM57.4141 12.6465V14.5898H50.2754V12.6465H57.4141ZM50.959 0.371094V14.5898H48.5078V0.371094H50.959ZM61.1937 4.02344V14.5898H58.8305V4.02344H61.1937ZM58.6742 1.25C58.6742 0.891927 58.7914 0.595703 59.0258 0.361328C59.2667 0.120443 59.5987 0 60.0219 0C60.4385 0 60.7673 0.120443 61.0082 0.361328C61.2491 0.595703 61.3695 0.891927 61.3695 1.25C61.3695 1.60156 61.2491 1.89453 61.0082 2.12891C60.7673 2.36328 60.4385 2.48047 60.0219 2.48047C59.5987 2.48047 59.2667 2.36328 59.0258 2.12891C58.7914 1.89453 58.6742 1.60156 58.6742 1.25ZM65.7059 6.2793V14.5898H63.3523V4.02344H65.5691L65.7059 6.2793ZM65.2859 8.91602L64.5242 8.90625C64.5307 8.15755 64.6349 7.4707 64.8367 6.8457C65.0451 6.2207 65.3315 5.68359 65.6961 5.23438C66.0672 4.78516 66.5099 4.4401 67.0242 4.19922C67.5385 3.95182 68.1115 3.82812 68.743 3.82812C69.2508 3.82812 69.7098 3.89974 70.1199 4.04297C70.5366 4.17969 70.8914 4.4043 71.1844 4.7168C71.4839 5.0293 71.7117 5.4362 71.868 5.9375C72.0242 6.43229 72.1023 7.04102 72.1023 7.76367V14.5898H69.7391V7.75391C69.7391 7.24609 69.6642 6.8457 69.5145 6.55273C69.3712 6.25326 69.1596 6.04167 68.8797 5.91797C68.6063 5.78776 68.2645 5.72266 67.8543 5.72266C67.4507 5.72266 67.0893 5.80729 66.7703 5.97656C66.4513 6.14583 66.1811 6.37695 65.9598 6.66992C65.7449 6.96289 65.5789 7.30143 65.4617 7.68555C65.3445 8.06966 65.2859 8.47982 65.2859 8.91602ZM80.8723 4.02344H83.0109V14.2969C83.0109 15.2474 82.8091 16.0547 82.4055 16.7188C82.0018 17.3828 81.4387 17.8874 80.716 18.2324C79.9934 18.584 79.1568 18.7598 78.2063 18.7598C77.8026 18.7598 77.3534 18.7012 76.8586 18.584C76.3703 18.4668 75.8951 18.278 75.4328 18.0176C74.9771 17.7637 74.5962 17.4284 74.2902 17.0117L75.3938 15.625C75.7714 16.0742 76.188 16.403 76.6438 16.6113C77.0995 16.8197 77.578 16.9238 78.0793 16.9238C78.6197 16.9238 79.0786 16.8229 79.4563 16.6211C79.8404 16.4258 80.1366 16.1361 80.3449 15.752C80.5533 15.3678 80.6574 14.8991 80.6574 14.3457V6.41602L80.8723 4.02344ZM73.6945 9.42383V9.21875C73.6945 8.41797 73.7922 7.6888 73.9875 7.03125C74.1828 6.36719 74.4628 5.79753 74.8273 5.32227C75.1919 4.84049 75.6346 4.47266 76.1555 4.21875C76.6763 3.95833 77.2655 3.82812 77.923 3.82812C78.6066 3.82812 79.1893 3.95182 79.6711 4.19922C80.1594 4.44661 80.5663 4.80143 80.8918 5.26367C81.2173 5.7194 81.4712 6.26628 81.6535 6.9043C81.8423 7.53581 81.9823 8.23893 82.0734 9.01367V9.66797C81.9888 10.4232 81.8456 11.1133 81.6438 11.7383C81.4419 12.3633 81.175 12.9036 80.843 13.3594C80.5109 13.8151 80.1008 14.1667 79.6125 14.4141C79.1307 14.6615 78.5611 14.7852 77.9035 14.7852C77.259 14.7852 76.6763 14.6517 76.1555 14.3848C75.6411 14.1178 75.1984 13.7435 74.8273 13.2617C74.4628 12.7799 74.1828 12.2135 73.9875 11.5625C73.7922 10.9049 73.6945 10.1921 73.6945 9.42383ZM76.048 9.21875V9.42383C76.048 9.9056 76.0936 10.3548 76.1848 10.7715C76.2824 11.1882 76.4289 11.556 76.6242 11.875C76.826 12.1875 77.08 12.4349 77.3859 12.6172C77.6984 12.793 78.0663 12.8809 78.4895 12.8809C79.0428 12.8809 79.4953 12.7637 79.8469 12.5293C80.205 12.2949 80.4784 11.9792 80.6672 11.582C80.8625 11.1784 80.9992 10.7292 81.0773 10.2344V8.4668C81.0383 8.08268 80.9569 7.72461 80.8332 7.39258C80.716 7.06055 80.5565 6.77083 80.3547 6.52344C80.1529 6.26953 79.899 6.07422 79.593 5.9375C79.287 5.79427 78.9257 5.72266 78.509 5.72266C78.0858 5.72266 77.718 5.8138 77.4055 5.99609C77.093 6.17839 76.8358 6.42904 76.634 6.74805C76.4387 7.06706 76.2922 7.43815 76.1945 7.86133C76.0969 8.28451 76.048 8.73698 76.048 9.21875ZM84.6031 9.42383V9.19922C84.6031 8.4375 84.7138 7.73112 84.9352 7.08008C85.1565 6.42253 85.4755 5.85286 85.8922 5.37109C86.3154 4.88281 86.8297 4.50521 87.4352 4.23828C88.0471 3.96484 88.7372 3.82812 89.5055 3.82812C90.2802 3.82812 90.9703 3.96484 91.5758 4.23828C92.1878 4.50521 92.7053 4.88281 93.1285 5.37109C93.5517 5.85286 93.874 6.42253 94.0953 7.08008C94.3167 7.73112 94.4273 8.4375 94.4273 9.19922V9.42383C94.4273 10.1855 94.3167 10.8919 94.0953 11.543C93.874 12.194 93.5517 12.7637 93.1285 13.252C92.7053 13.7337 92.191 14.1113 91.5855 14.3848C90.9801 14.6517 90.2932 14.7852 89.525 14.7852C88.7503 14.7852 88.0569 14.6517 87.4449 14.3848C86.8395 14.1113 86.3251 13.7337 85.902 13.252C85.4788 12.7637 85.1565 12.194 84.9352 11.543C84.7138 10.8919 84.6031 10.1855 84.6031 9.42383ZM86.9566 9.19922V9.42383C86.9566 9.89909 87.0055 10.3483 87.1031 10.7715C87.2008 11.1947 87.3538 11.5658 87.5621 11.8848C87.7704 12.2038 88.0374 12.4544 88.3629 12.6367C88.6884 12.819 89.0758 12.9102 89.525 12.9102C89.9612 12.9102 90.3388 12.819 90.6578 12.6367C90.9833 12.4544 91.2503 12.2038 91.4586 11.8848C91.6669 11.5658 91.8199 11.1947 91.9176 10.7715C92.0217 10.3483 92.0738 9.89909 92.0738 9.42383V9.19922C92.0738 8.73047 92.0217 8.28776 91.9176 7.87109C91.8199 7.44792 91.6637 7.07357 91.4488 6.74805C91.2405 6.42253 90.9736 6.16862 90.648 5.98633C90.329 5.79753 89.9482 5.70312 89.5055 5.70312C89.0628 5.70312 88.6786 5.79753 88.3531 5.98633C88.0341 6.16862 87.7704 6.42253 87.5621 6.74805C87.3538 7.07357 87.2008 7.44792 87.1031 7.87109C87.0055 8.28776 86.9566 8.73047 86.9566 9.19922Z" fill="#121417"/>
</svg>
